# xmcd
#
# Track frame offsets: 
#        300
#        12140
#        24545
#        36405
#        47635
#        57229
#        69614
#        81326
#        93376
#        104499
#        115574
#        127716
#
# Disc length: 1842 seconds
#
# Revision: 3
# Processed by: cddbd v1.5.2PL0 Copyright (c) Steve Scherf et al.
# Submitted via: ExactAudioCopy v1.0b1
#
DISCID=97072e0c
DTITLE=Bobby "Blue" Bland - Two Steps From The Blues
DYEAR=1973
DGENRE=
TTITLE0=Two Steps From The Blues
TTITLE1=Cry, Cry, Cry
TTITLE2=I'm Not Ashamed
TTITLE3=Don't Cry No More
TTITLE4=Lead Me On
TTITLE5=I Pity The Fool
TTITLE6=I've Got To Forget You
TTITLE7=Little Boy Blue
TTITLE8=St. James Infirmary
TTITLE9=I'll Take Care Of You
TTITLE10=I Don't Want No Woman
TTITLE11=I've Been Wrong So Long
EXTD=MCAD-27036\n\n
EXTT0=
EXTT1=
EXTT2=
EXTT3=
EXTT4=
EXTT5=
EXTT6=
EXTT7=
EXTT8=
EXTT9=
EXTT10=
EXTT11=
PLAYORDER=
